<svg xmlns="http://www.w3.org/2000/svg" width="23.145" height="23.167" viewBox="0 0 23.145 23.167">
  <path id="shopping_cart_FILL0_wght400_GRAD0_opsz24_1_" data-name="shopping_cart_FILL0_wght400_GRAD0_opsz24 (1)" d="M46.95-856.833a2.231,2.231,0,0,1-1.636-.681,2.231,2.231,0,0,1-.681-1.636,2.231,2.231,0,0,1,.681-1.636,2.231,2.231,0,0,1,1.636-.68,2.231,2.231,0,0,1,1.636.68,2.231,2.231,0,0,1,.681,1.636,2.231,2.231,0,0,1-.681,1.636A2.231,2.231,0,0,1,46.95-856.833Zm11.583,0a2.231,2.231,0,0,1-1.636-.681,2.231,2.231,0,0,1-.681-1.636,2.231,2.231,0,0,1,.681-1.636,2.231,2.231,0,0,1,1.636-.68,2.231,2.231,0,0,1,1.636.68,2.231,2.231,0,0,1,.681,1.636,2.231,2.231,0,0,1-.681,1.636A2.231,2.231,0,0,1,58.533-856.833ZM45.965-875.367l2.78,5.792h8.108l3.185-5.792Zm-1.1-2.317H61.95a1.109,1.109,0,0,1,1.014.594,1.168,1.168,0,0,1,.029,1.2l-4.112,7.413a2.32,2.32,0,0,1-.854.9,2.253,2.253,0,0,1-1.173.319h-8.63l-1.274,2.317h13.9v2.317H46.95a2.144,2.144,0,0,1-1.969-1.144,2.19,2.19,0,0,1-.058-2.273l1.564-2.838-4.17-8.8H40V-880h3.765Zm3.88,8.108h0Z" transform="translate(-40 880)" fill="#fff"/>
</svg>
