<svg xmlns="http://www.w3.org/2000/svg" xmlns:xlink="http://www.w3.org/1999/xlink" xml:space="preserve" version="1.1" style="shape-rendering:geometricPrecision;text-rendering:geometricPrecision;image-rendering:optimizeQuality;" viewBox="0 0 846.66 1058.325" x="0px" y="0px" fill-rule="evenodd" clip-rule="evenodd"><defs><style type="text/css">
   
    .fil0 {fill:black;fill-rule:nonzero}
   
  </style></defs><g><path class="fil0" d="M562.71 138.03c4.03,2.33 5.41,7.51 3.08,11.54 -2.33,4.03 -7.51,5.41 -11.54,3.08 -15.32,-8.92 -31.94,-15.9 -49.07,-20.51 -16.77,-4.53 -34.46,-6.96 -52.68,-6.96 -53.98,0 -105.31,21.47 -143.5,59.66 -36.84,36.84 -59.7,87.65 -59.7,143.54l0 194.4c0,6.43 -1.34,12.51 -3.94,18.03 -3.03,5.94 -6.19,10.21 -11.36,14.5 -7.29,6.06 -13.61,13.1 -18.77,20.8 -5.24,7.81 -9.33,16.34 -12.14,25.27 -9.73,30.94 7.22,64.11 38.08,74.19 67.83,22.19 139.57,33.28 211.33,33.28 71.76,0 143.51,-11.09 211.33,-33.28 30.85,-10.08 47.82,-43.26 38.08,-74.19 -2.81,-8.93 -6.9,-17.47 -12.14,-25.28 -5.16,-7.7 -11.46,-14.73 -18.76,-20.79 -4.97,-4.13 -8.8,-9.04 -11.37,-14.52 -2.6,-5.53 -3.94,-11.6 -3.94,-18.01l0 -194.4c0,-16.52 -1.97,-32.52 -5.66,-47.74 -3.22,-13.27 -7.78,-26.07 -13.51,-38.24 -2.06,0.45 -4.2,0.69 -6.39,0.69 -8.14,0 -15.51,-3.3 -20.84,-8.63 -5.33,-5.33 -8.63,-12.7 -8.63,-20.84 0,-8.14 3.3,-15.5 8.63,-20.83 5.33,-5.33 12.7,-8.63 20.84,-8.63 8.14,0 15.5,3.3 20.83,8.63 5.33,5.33 8.63,12.71 8.63,20.83 0,7.97 -3.16,15.2 -8.3,20.5 6.43,13.46 11.54,27.72 15.14,42.56 4.04,16.67 6.2,34.02 6.2,51.7l0 194.4c0,4.01 0.78,7.67 2.28,10.87 1.51,3.23 3.84,6.18 6.87,8.7 8.59,7.13 15.98,15.37 22,24.35 6.17,9.2 10.98,19.21 14.26,29.66 12.51,39.73 -9.42,82.35 -49,95.29 -39.46,12.91 -80.18,22.16 -121.45,27.74 -0.55,25.45 -11.08,48.43 -27.84,65.19 -17.21,17.21 -40.99,27.86 -67.26,27.86 -26.27,0 -50.05,-10.65 -67.26,-27.86 -16.76,-16.76 -27.29,-39.74 -27.84,-65.19 -41.26,-5.58 -81.99,-14.83 -121.45,-27.74 -39.59,-12.94 -61.53,-55.59 -49,-95.33 3.29,-10.43 8.1,-20.42 14.26,-29.61 6.02,-8.98 13.42,-17.22 22.01,-24.36 2.77,-2.3 5.41,-5.42 6.86,-8.74 1.5,-3.2 2.28,-6.85 2.28,-10.83l0 -194.4c0,-60.49 24.75,-115.51 64.64,-155.42 19.88,-19.87 43.48,-35.99 69.63,-47.17l0 -5.7c0,-23.6 9.67,-45.06 25.21,-60.61 15.55,-15.59 37.04,-25.25 60.66,-25.25 23.6,0 45.06,9.67 60.61,25.21 15.59,15.55 25.25,37.04 25.25,60.65l0 5.7c8.39,3.58 16.53,7.69 24.35,12.24zm-247.83 415.96c-4.54,-1.03 -7.38,-5.57 -6.35,-10.11 1.03,-4.54 5.57,-7.38 10.11,-6.35 43.95,10.18 88.89,15.29 133.86,15.29 44.98,0 89.91,-5.11 133.86,-15.29 4.54,-1.03 9.08,1.81 10.11,6.35 1.03,4.54 -1.81,9.08 -6.35,10.11 -45.33,10.5 -91.52,15.77 -137.62,15.77 -46.09,0 -92.29,-5.27 -137.62,-15.77zm324.11 -349.22c-2.26,-2.26 -5.4,-3.67 -8.85,-3.67 -3.46,0 -6.6,1.41 -8.86,3.67 -2.26,2.26 -3.67,5.4 -3.67,8.85 0,3.46 1.41,6.6 3.67,8.86 2.26,2.26 5.4,3.67 8.86,3.67 3.45,0 6.59,-1.41 8.85,-3.67 2.26,-2.26 3.67,-5.4 3.67,-8.86 0,-3.45 -1.41,-6.59 -3.67,-8.85zm-505.44 102.92c-4.67,0 -8.47,-3.8 -8.47,-8.47 0,-4.67 3.8,-8.47 8.47,-8.47l50.68 0c4.67,0 8.47,3.8 8.47,8.47 0,4.67 -3.8,8.47 -8.47,8.47l-50.68 0zm8.03 -68.7c-4.51,-1.2 -7.19,-5.84 -5.99,-10.35 1.2,-4.51 5.84,-7.19 10.35,-5.99l48.96 13.12c4.51,1.2 7.19,5.84 5.99,10.35 -1.2,4.51 -5.84,7.19 -10.35,5.99l-48.96 -13.12zm25.52 -64.3c-4.03,-2.33 -5.41,-7.51 -3.08,-11.54 2.33,-4.03 7.51,-5.41 11.54,-3.08l43.89 25.34c4.03,2.33 5.41,7.51 3.08,11.54 -2.33,4.03 -7.51,5.41 -11.54,3.08l-43.89 -25.34zm41.29 -55.43c-3.3,-3.3 -3.3,-8.68 0,-11.98 3.3,-3.3 8.68,-3.3 11.98,0l35.84 35.84c3.3,3.3 3.3,8.68 0,11.98 -3.3,3.3 -8.68,3.3 -11.98,0l-35.84 -35.84zm175.19 0.11c21.72,-7.22 44.88,-11.13 68.92,-11.13 19.67,0 38.82,2.64 57.04,7.56 4,1.08 7.95,2.27 11.87,3.57 -0.2,-18.66 -7.91,-35.62 -20.24,-47.95 -12.47,-12.5 -29.71,-20.25 -48.67,-20.25 -18.95,0 -36.19,7.76 -48.68,20.25 -12.34,12.31 -20.04,29.28 -20.24,47.95zm146.99 602.12c-25.91,2.87 -51.99,4.3 -78.07,4.3 -26.08,0 -52.16,-1.43 -78.07,-4.3 1.05,19.92 9.57,37.89 22.79,51.11 14.14,14.14 33.7,22.9 55.28,22.9 21.58,0 41.14,-8.76 55.28,-22.9 13.22,-13.22 21.74,-31.19 22.79,-51.11z"/></g></svg>